<svg width="70" height="14" viewBox="0 0 70 14" fill="none" xmlns="http://www.w3.org/2000/svg">
<path d="M64.2025 12.8283C64.0539 12.8283 63.91 12.8144 63.7707 12.7865C63.6407 12.7587 63.52 12.7262 63.4086 12.689L63.6314 11.7837C63.7057 11.8022 63.7893 11.8208 63.8822 11.8394C63.975 11.8672 64.0632 11.8812 64.1468 11.8812C64.5275 11.8812 64.8432 11.7419 65.0939 11.4633C65.3447 11.194 65.5397 10.8504 65.6789 10.4326L65.8322 9.93116L63.1161 3.14795H64.3L65.6789 6.89473C65.7811 7.18259 65.8879 7.49366 65.9993 7.82795C66.12 8.16223 66.2314 8.48723 66.3336 8.80295H66.3893C66.4914 8.49652 66.5889 8.17616 66.6818 7.84188C66.7747 7.50759 66.8675 7.19188 66.9604 6.89473L68.1722 3.14795H69.2864L66.7375 10.4744C66.5797 10.9201 66.3893 11.3194 66.1664 11.6722C65.9529 12.0251 65.6836 12.3037 65.3586 12.5079C65.0429 12.7215 64.6575 12.8283 64.2025 12.8283Z" fill="#2B2B2B"/>
<path d="M59.4413 10.0843C59.1256 10.0843 58.7959 10.01 58.4524 9.86143C58.1181 9.70357 57.8024 9.49 57.5052 9.22071H57.4634L57.3659 9.91714H56.4467V0H57.5888V2.70214L57.5609 3.92786C57.8674 3.65857 58.2017 3.43571 58.5638 3.25929C58.9352 3.07357 59.3067 2.98071 59.6781 2.98071C60.5602 2.98071 61.2288 3.29179 61.6838 3.91393C62.1388 4.53607 62.3663 5.37179 62.3663 6.42107C62.3663 7.19179 62.227 7.85107 61.9484 8.39893C61.6792 8.94679 61.3217 9.36464 60.8759 9.6525C60.4395 9.94036 59.9613 10.0843 59.4413 10.0843ZM59.2463 9.12321C59.8034 9.12321 60.2631 8.88643 60.6252 8.41286C60.9967 7.93 61.1824 7.27071 61.1824 6.435C61.1824 5.69214 61.0431 5.09321 60.7645 4.63821C60.4952 4.17393 60.0402 3.94179 59.3995 3.94179C59.1117 3.94179 58.8192 4.02071 58.522 4.17857C58.2249 4.33643 57.9138 4.56393 57.5888 4.86107V8.41286C57.8859 8.67286 58.1784 8.85857 58.4663 8.97C58.7634 9.07214 59.0234 9.12321 59.2463 9.12321Z" fill="#2B2B2B"/>
<path d="M48.2442 10.0843C47.3992 10.0843 46.7214 9.77786 46.2106 9.165C45.6999 8.54286 45.4446 7.67 45.4446 6.54643C45.4446 5.81286 45.5792 5.18143 45.8485 4.65214C46.1271 4.11357 46.4892 3.70036 46.9349 3.4125C47.3899 3.12464 47.8728 2.98071 48.3835 2.98071C48.7735 2.98071 49.1124 3.05036 49.4003 3.18964C49.6882 3.32893 49.9807 3.51929 50.2778 3.76071L50.2221 2.60464V0H51.3782V9.91714H50.431L50.3335 9.12321H50.2917C50.0317 9.38321 49.7253 9.61071 49.3724 9.80572C49.0196 9.99143 48.6435 10.0843 48.2442 10.0843ZM48.4949 9.12321C49.0892 9.12321 49.6649 8.81214 50.2221 8.19V4.65214C49.9342 4.39214 49.6557 4.21107 49.3864 4.10893C49.1264 3.9975 48.8571 3.94179 48.5785 3.94179C48.2164 3.94179 47.8867 4.05321 47.5896 4.27607C47.3017 4.48964 47.0696 4.79143 46.8931 5.18143C46.7167 5.56214 46.6285 6.0125 46.6285 6.5325C46.6285 7.34036 46.791 7.97643 47.116 8.44071C47.441 8.89571 47.9006 9.12321 48.4949 9.12321Z" fill="#2B2B2B"/>
<path d="M41.7662 10.0845C41.1626 10.0845 40.6147 9.94524 40.1226 9.66667C39.6305 9.37882 39.2405 8.97024 38.9526 8.44096C38.6647 7.91167 38.5208 7.28024 38.5208 6.54667C38.5208 5.80381 38.6647 5.16774 38.9526 4.63846C39.2497 4.10917 39.6305 3.7006 40.0947 3.41274C40.559 3.12489 41.0465 2.98096 41.5572 2.98096C42.4208 2.98096 43.0847 3.26881 43.549 3.84453C44.0226 4.42024 44.2594 5.19096 44.2594 6.15667C44.2594 6.27739 44.2547 6.3981 44.2455 6.51881C44.2455 6.63024 44.2362 6.72774 44.2176 6.81131H39.649C39.6955 7.52631 39.9183 8.09739 40.3176 8.52453C40.7262 8.95167 41.2555 9.16524 41.9055 9.16524C42.2305 9.16524 42.5276 9.11881 42.7969 9.02596C43.0755 8.92381 43.3401 8.79381 43.5908 8.63596L43.9947 9.3881C43.7069 9.57381 43.3772 9.73631 43.0058 9.8756C42.6437 10.0149 42.2305 10.0845 41.7662 10.0845ZM39.6351 5.98953H43.2565C43.2565 5.30239 43.108 4.78239 42.8108 4.42953C42.523 4.06739 42.1144 3.88631 41.5851 3.88631C41.1115 3.88631 40.6844 4.07203 40.3037 4.44346C39.9322 4.8056 39.7094 5.32096 39.6351 5.98953Z" fill="#2B2B2B"/>
<path d="M31.4052 9.91739V3.1481H32.3523L32.4498 4.1231H32.4916C32.8166 3.7981 33.1602 3.52881 33.5223 3.31524C33.8844 3.09239 34.2976 2.98096 34.7619 2.98096C35.4769 2.98096 35.9969 3.20846 36.3219 3.66346C36.6562 4.10917 36.8234 4.76381 36.8234 5.62739V9.91739H35.6812V5.7806C35.6812 5.14917 35.5791 4.68953 35.3748 4.40167C35.1705 4.11381 34.8455 3.96989 34.3998 3.96989C34.0562 3.96989 33.7451 4.0581 33.4666 4.23453C33.1973 4.41096 32.8909 4.67096 32.5473 5.01453V9.91739H31.4052Z" fill="#2B2B2B"/>
<path d="M26.6708 13.0374C25.8444 13.0374 25.1712 12.8795 24.6512 12.5638C24.1312 12.2481 23.8712 11.7977 23.8712 11.2127C23.8712 10.9249 23.9594 10.6463 24.1358 10.377C24.3122 10.117 24.5537 9.88489 24.8601 9.6806V9.62489C24.6929 9.52274 24.549 9.37881 24.4283 9.1931C24.3169 9.00739 24.2612 8.78453 24.2612 8.52453C24.2612 8.23667 24.3401 7.98596 24.4979 7.77239C24.6558 7.55881 24.8229 7.39167 24.9994 7.27096V7.21524C24.7765 7.02953 24.5722 6.77882 24.3865 6.4631C24.2101 6.14739 24.1219 5.78989 24.1219 5.3906C24.1219 4.89846 24.2379 4.47131 24.4701 4.10917C24.7022 3.74703 25.0133 3.46846 25.4033 3.27346C25.7933 3.07846 26.2158 2.98096 26.6708 2.98096C26.8565 2.98096 27.0329 2.99953 27.2001 3.03667C27.3672 3.06453 27.5112 3.10167 27.6319 3.1481H29.9858V4.0256H28.5929C28.7508 4.17417 28.8808 4.37381 28.9829 4.62453C29.0944 4.86596 29.1501 5.1306 29.1501 5.41846C29.1501 5.90131 29.0387 6.31917 28.8158 6.67203C28.5929 7.02489 28.2958 7.29881 27.9244 7.49381C27.5529 7.67953 27.1351 7.77239 26.6708 7.77239C26.3087 7.77239 25.9697 7.69346 25.654 7.5356C25.5333 7.63774 25.4312 7.75381 25.3476 7.88381C25.264 8.00453 25.2222 8.15774 25.2222 8.34346C25.2222 8.55703 25.3058 8.73346 25.4729 8.87274C25.6494 9.01203 25.9651 9.08167 26.4201 9.08167H27.7294C28.5187 9.08167 29.1083 9.21167 29.4983 9.47167C29.8976 9.72239 30.0972 10.131 30.0972 10.6974C30.0972 11.1152 29.9579 11.5006 29.6794 11.8535C29.4008 12.2063 29.0062 12.4895 28.4954 12.7031C27.9847 12.926 27.3765 13.0374 26.6708 13.0374ZM26.6708 7.00631C27.0608 7.00631 27.3951 6.86239 27.6737 6.57453C27.9615 6.27739 28.1054 5.88274 28.1054 5.3906C28.1054 4.89846 27.9662 4.5131 27.6876 4.23453C27.409 3.95596 27.0701 3.81667 26.6708 3.81667C26.2715 3.81667 25.9326 3.95596 25.654 4.23453C25.3754 4.5131 25.2362 4.89846 25.2362 5.3906C25.2362 5.88274 25.3754 6.27739 25.654 6.57453C25.9419 6.86239 26.2808 7.00631 26.6708 7.00631ZM26.8379 12.2435C27.4879 12.2435 28.0079 12.0995 28.3979 11.8117C28.7879 11.5331 28.9829 11.2174 28.9829 10.8645C28.9829 10.5488 28.8622 10.3306 28.6208 10.2099C28.3887 10.0892 28.0544 10.0288 27.6179 10.0288H26.4479C26.3179 10.0288 26.174 10.0195 26.0162 10.001C25.8676 9.98239 25.719 9.95453 25.5704 9.91739C25.329 10.0938 25.1526 10.2795 25.0412 10.4745C24.9297 10.6695 24.874 10.8645 24.874 11.0595C24.874 11.4217 25.0458 11.7095 25.3894 11.9231C25.7422 12.1367 26.2251 12.2435 26.8379 12.2435Z" fill="#2B2B2B"/>
<path d="M20.9587 9.91692V3.14763H22.1009V9.91692H20.9587ZM21.5437 1.75477C21.3209 1.75477 21.1351 1.68977 20.9866 1.55977C20.8473 1.42049 20.7776 1.23477 20.7776 1.00263C20.7776 0.779773 20.8473 0.598702 20.9866 0.459417C21.1351 0.320131 21.3209 0.250488 21.5437 0.250488C21.7666 0.250488 21.9476 0.320131 22.0869 0.459417C22.2355 0.598702 22.3098 0.779773 22.3098 1.00263C22.3098 1.23477 22.2355 1.42049 22.0869 1.55977C21.9476 1.68977 21.7666 1.75477 21.5437 1.75477Z" fill="#2B2B2B"/>
<path d="M16.8922 10.0845C16.4094 10.0845 15.9497 9.99632 15.5133 9.81989C15.0769 9.63417 14.6962 9.41131 14.3712 9.15132L14.9422 8.38524C15.2394 8.61739 15.5458 8.81239 15.8615 8.97024C16.1772 9.11881 16.5347 9.1931 16.934 9.1931C17.3797 9.1931 17.714 9.09096 17.9369 8.88667C18.1597 8.6731 18.2712 8.42239 18.2712 8.13453C18.2712 7.90239 18.1922 7.70739 18.0344 7.54953C17.8858 7.39167 17.6908 7.26167 17.4494 7.15953C17.2172 7.0481 16.9758 6.94596 16.7251 6.8531C16.4094 6.73239 16.0983 6.59774 15.7919 6.44917C15.4854 6.29131 15.2347 6.09167 15.0397 5.85024C14.8447 5.59953 14.7472 5.28381 14.7472 4.9031C14.7472 4.35524 14.9515 3.90024 15.3601 3.5381C15.7779 3.16667 16.3537 2.98096 17.0872 2.98096C17.5051 2.98096 17.8951 3.05524 18.2572 3.20381C18.6194 3.35239 18.9304 3.53346 19.1904 3.74703L18.6333 4.47131C18.4012 4.29489 18.1597 4.15096 17.909 4.03953C17.6583 3.9281 17.3844 3.87239 17.0872 3.87239C16.6601 3.87239 16.3444 3.96989 16.1401 4.16489C15.9451 4.35989 15.8476 4.58739 15.8476 4.84739C15.8476 5.06096 15.9172 5.23739 16.0565 5.37667C16.1958 5.50667 16.3769 5.62274 16.5997 5.72489C16.8226 5.81774 17.0594 5.91524 17.3101 6.01739C17.6351 6.1381 17.9554 6.27739 18.2712 6.43524C18.5869 6.58381 18.8469 6.7881 19.0512 7.0481C19.2647 7.29881 19.3715 7.63774 19.3715 8.06489C19.3715 8.42703 19.274 8.76132 19.079 9.06774C18.8933 9.37417 18.6147 9.62024 18.2433 9.80596C17.8812 9.99167 17.4308 10.0845 16.8922 10.0845Z" fill="#2B2B2B"/>
<path d="M10.9573 10.0845C10.3538 10.0845 9.8059 9.94524 9.31376 9.66667C8.82162 9.37882 8.43162 8.97024 8.14376 8.44096C7.8559 7.91167 7.71198 7.28024 7.71198 6.54667C7.71198 5.80381 7.8559 5.16774 8.14376 4.63846C8.4409 4.10917 8.82162 3.7006 9.2859 3.41274C9.75019 3.12489 10.2377 2.98096 10.7484 2.98096C11.612 2.98096 12.2759 3.26881 12.7402 3.84453C13.2138 4.42024 13.4505 5.19096 13.4505 6.15667C13.4505 6.27739 13.4459 6.3981 13.4366 6.51881C13.4366 6.63024 13.4273 6.72774 13.4088 6.81131H8.84019C8.88662 7.52631 9.10948 8.09739 9.50876 8.52453C9.91733 8.95167 10.4466 9.16524 11.0966 9.16524C11.4216 9.16524 11.7188 9.11881 11.988 9.02596C12.2666 8.92381 12.5313 8.79381 12.782 8.63596L13.1859 9.3881C12.898 9.57381 12.5684 9.73631 12.197 9.8756C11.8348 10.0149 11.4216 10.0845 10.9573 10.0845ZM8.82626 5.98953H12.4477C12.4477 5.30239 12.2991 4.78239 12.002 4.42953C11.7141 4.06739 11.3055 3.88631 10.7763 3.88631C10.3027 3.88631 9.87555 4.07203 9.49483 4.44346C9.1234 4.8056 8.90055 5.32096 8.82626 5.98953Z" fill="#2B2B2B"/>
<path d="M2.79964 10.0843C1.95464 10.0843 1.27679 9.77786 0.766072 9.165C0.255357 8.54286 0 7.67 0 6.54643C0 5.81286 0.134643 5.18143 0.403929 4.65214C0.6825 4.11357 1.04464 3.70036 1.49036 3.4125C1.94536 3.12464 2.42821 2.98071 2.93893 2.98071C3.32893 2.98071 3.66786 3.05036 3.95571 3.18964C4.24357 3.32893 4.53607 3.51929 4.83321 3.76071L4.7775 2.60464V0H5.93357V9.91714H4.98643L4.88893 9.12321H4.84714C4.58714 9.38321 4.28071 9.61071 3.92786 9.80572C3.575 9.99143 3.19893 10.0843 2.79964 10.0843ZM3.05036 9.12321C3.64464 9.12321 4.22036 8.81214 4.7775 8.19V4.65214C4.48964 4.39214 4.21107 4.21107 3.94179 4.10893C3.68179 3.9975 3.4125 3.94179 3.13393 3.94179C2.77179 3.94179 2.44214 4.05321 2.145 4.27607C1.85714 4.48964 1.625 4.79143 1.44857 5.18143C1.27214 5.56214 1.18393 6.0125 1.18393 6.5325C1.18393 7.34036 1.34643 7.97643 1.67143 8.44071C1.99643 8.89571 2.45607 9.12321 3.05036 9.12321Z" fill="#2B2B2B"/>
</svg>
